# xmcd
#
# Track frame offsets:
#	150
#	16245
#	19223
#	38257
#	70533
#	90221
#	107710
#	120318
#	129308
#	138139
#	149199
#	173385
#	186138
#	197762
#	209002
#	225473
#
# Disc length: 3188 seconds
# Revision: 0
# Processed by: cddbd v1.5.2PL0 Copyright (c) Steve Scherf et al.
# Submitted via: dBpowerAMP V12.0
#
DISCID=c70c7210
DTITLE=Hale Dwoskin - Practical Freedom CD 06 - Getting into Action
DYEAR=2005
DGENRE=Speech
TTITLE0=Introduction
TTITLE1=Welcoming What Is
TTITLE2=Procrastination - Starting Projects
TTITLE3=Rejecting Success - Rejecting Failure
TTITLE4=Resistance to Doing - Having Goals
TTITLE5=Work - Completion
TTITLE6=Motivation - Take a Break
TTITLE7=Welcome Back
TTITLE8=Being Weak
TTITLE9=Taking Action
TTITLE10=Pushing Yourself - Wanting to Fail
TTITLE11=Having No Time - I Cannot Do It
TTITLE12=Having to Be Doing Something - Having to Do It Yourself
TTITLE13=Not Knowing What You Are Doing
TTITLE14=Being a Loser - Being a Failure - Being the Doer
TTITLE15=Love and Hate about Taking Action - Conclusion
EXTD=
EXTT0=
EXTT1=
EXTT2=
EXTT3=
EXTT4=
EXTT5=
EXTT6=
EXTT7=
EXTT8=
EXTT9=
EXTT10=
EXTT11=
EXTT12=
EXTT13=
EXTT14=
EXTT15=
PLAYORDER=
